<?xml version="1.0" encoding="utf-8"?>
<!-- Generator: Adobe Illustrator 27.5.0, SVG Export Plug-In . SVG Version: 6.00 Build 0)  -->
<svg version="1.1" id="Layer_1" xmlns="http://www.w3.org/2000/svg" xmlns:xlink="http://www.w3.org/1999/xlink" x="0px" y="0px"
	 viewBox="0 0 100 100" style="enable-background:new 0 0 100 100;" xml:space="preserve">
<style type="text/css">
	.st0{fill:url(#SVGID_1_);}
</style>
<linearGradient id="SVGID_1_" gradientUnits="userSpaceOnUse" x1="15.6053" y1="50" x2="84.3947" y2="50">
	<stop  offset="0" style="stop-color:#2D2E74"/>
	<stop  offset="0.9961" style="stop-color:#CA1E55"/>
	<stop  offset="1" style="stop-color:#CC1E55"/>
</linearGradient>
<path class="st0" d="M69.08,47.35c0,3.1-0.07,5.85,0.02,8.59c0.07,2,0.84,3.82,1.98,5.47c0.97,1.42,2.1,2.77,2.86,4.3
	c1.01,2.03,1.8,4.18,2.54,6.33c0.21,0.6-0.01,1.37-0.12,2.04c-0.13,0.8-0.65,1.17-1.49,1.16c-1.11-0.02-2.22,0.03-3.33,0.03
	c-15.35,0-30.71,0-46.06,0c-0.41,0-0.82-0.03-1.23-0.02c-0.74,0.01-0.97-0.37-1.02-1.07c-0.14-2.13,0.16-4.18,1.19-6.06
	c0.78-1.43,1.49-2.97,2.54-4.19c3.21-3.75,3.96-8.13,3.84-12.85c-0.08-3.19-0.07-6.39,0.14-9.58c0.31-4.81,1.75-9.2,5.83-12.23
	c1.34-0.99,2.87-1.76,4.39-2.44c1.44-0.64,2.49-1.52,2.99-3.03c0.2-0.62,0.52-1.2,0.74-1.82c1.29-3.68,5.75-3.91,8.5-2.15
	c0.39,0.25,0.67,0.72,0.89,1.15c0.43,0.84,0.84,1.69,1.15,2.58c0.57,1.6,1.57,2.65,3.21,3.28c6.77,2.63,9.74,7.9,10.14,14.88
	C68.89,43.7,68.99,45.7,69.08,47.35z M40.75,79.23c0.56,3.53,4.7,6.79,8.75,6.97c4.19,0.19,8.39-2.81,9.53-6.97
	C52.86,79.23,46.81,79.23,40.75,79.23z M29.33,14.33c-2.74,1.81-4.98,4.15-6.95,6.73c-3.42,4.46-5.6,9.48-6.69,14.98
	c-0.25,1.25,0.11,2.05,1.15,2.3c1.07,0.26,1.54-0.12,1.92-1.47c0.62-2.2,1.13-4.44,1.95-6.56c2.11-5.43,5.62-9.84,10.36-13.28
	c0.49-0.35,0.85-0.87,1.09-1.12C32.09,14,30.76,13.39,29.33,14.33z M81.78,28.85c-2.36-5.92-6.28-10.69-11.38-14.51
	c-1.04-0.78-1.82-0.73-2.46,0.12c-0.7,0.92-0.34,1.68,0.44,2.34c0.28,0.24,0.56,0.48,0.86,0.7c6.06,4.67,9.89,10.71,11.36,18.21
	c0.11,0.56,0.27,1.11,0.47,1.64c0.32,0.83,1.01,1.33,1.84,0.98c0.55-0.23,0.92-0.91,1.49-1.53C83.49,34.02,82.78,31.38,81.78,28.85z
	 M25.04,39.58c0.99,0.58,1.99-0.05,2.19-1.28c0.89-5.34,3.45-9.74,7.48-13.34c0.18-0.16,0.37-0.33,0.52-0.52
	c0.63-0.79,0.44-1.5-0.22-2.18c-0.64-0.68-1.28-0.67-1.91-0.03c-1.36,1.37-2.83,2.64-4.01,4.14c-2.65,3.37-4.29,7.23-5.14,11.85
	C24.21,38.55,24.5,39.26,25.04,39.58z M73.62,31.43c-1.51-3.6-3.88-6.63-6.9-9.13c-0.7-0.58-1.33-0.71-2.05-0.01
	c-0.96,0.92-0.95,1.44,0.43,2.72c3.97,3.7,6.53,8.15,7.44,13.51c0.16,0.98,0.76,1.35,1.62,1.26c0.87-0.09,1.61-0.46,1.73-1.64
	C75.14,35.9,74.53,33.6,73.62,31.43z"/>
</svg>
